<svg width="20" height="20" viewBox="0 0 20 20" fill="none" xmlns="http://www.w3.org/2000/svg">
<path d="M10 20C15.5228 20 20 15.5228 20 10C20 4.47715 15.5228 0 10 0C4.47715 0 0 4.47715 0 10C0 15.5228 4.47715 20 10 20Z" fill="#F0F0F0"/>
<path d="M2.06693 3.91211C1.28143 4.9341 0.689121 6.11203 0.344238 7.39168H5.5465L2.06693 3.91211Z" fill="#0052B4"/>
<path d="M19.6553 7.39164C19.3104 6.11203 18.7181 4.9341 17.9326 3.91211L14.4531 7.39164H19.6553Z" fill="#0052B4"/>
<path d="M0.344238 12.6084C0.68916 13.888 1.28146 15.0659 2.06693 16.0879L5.54639 12.6084H0.344238Z" fill="#0052B4"/>
<path d="M16.0879 2.06746C15.0659 1.28195 13.888 0.689648 12.6084 0.344727V5.54695L16.0879 2.06746Z" fill="#0052B4"/>
<path d="M3.91211 17.9326C4.9341 18.7181 6.11203 19.3104 7.39164 19.6553V14.4531L3.91211 17.9326Z" fill="#0052B4"/>
<path d="M7.3916 0.344727C6.11199 0.689648 4.93406 1.28195 3.91211 2.06742L7.3916 5.54691V0.344727Z" fill="#0052B4"/>
<path d="M12.6084 19.6553C13.888 19.3104 15.0659 18.7181 16.0879 17.9326L12.6084 14.4531V19.6553Z" fill="#0052B4"/>
<path d="M14.4531 12.6084L17.9326 16.0879C18.7181 15.066 19.3104 13.888 19.6553 12.6084H14.4531Z" fill="#0052B4"/>
<path d="M19.9154 8.69566H11.3044H11.3044V0.0846484C10.8774 0.0290625 10.4421 0 10 0C9.55785 0 9.12262 0.0290625 8.69566 0.0846484V8.69559V8.69563H0.0846484C0.0290625 9.12262 0 9.55793 0 10C0 10.4421 0.0290625 10.8774 0.0846484 11.3043H8.69559H8.69563V19.9154C9.12262 19.9709 9.55785 20 10 20C10.4421 20 10.8774 19.971 11.3043 19.9154V11.3044V11.3044H19.9154C19.9709 10.8774 20 10.4421 20 10C20 9.55793 19.9709 9.12262 19.9154 8.69566Z" fill="#D80027"/>
<path d="M12.6079 12.6084L17.0703 17.0708C17.2755 16.8656 17.4713 16.6511 17.6581 16.4288L13.8377 12.6084H12.6079V12.6084Z" fill="#D80027"/>
<path d="M7.3906 12.6084H7.39053L2.92822 17.0707C3.13338 17.2759 3.34787 17.4717 3.57021 17.6585L7.3906 13.838V12.6084Z" fill="#D80027"/>
<path d="M7.39146 7.39117V7.3911L2.92912 2.92871C2.72389 3.13387 2.52811 3.34836 2.34131 3.5707L6.16174 7.39113H7.39146V7.39117Z" fill="#D80027"/>
<path d="M12.6079 7.39102L17.0703 2.92859C16.8651 2.72336 16.6506 2.52758 16.4283 2.34082L12.6079 6.16125V7.39102Z" fill="#D80027"/>
</svg>
